[img]http://hostpicturefree.com/images/bannerlnl.gif[/img]

Cover:

[img]http://ia.media-imdb.com/images/M/MV5BNTc3MjI3MjgxOV5BMl5BanBnXkFtZTcwNTc0NTM0Ng@@._V1._SY317_CR5,0,214,317_.jpg[/img]

Release info:

General
Format                                   : Matroska
Format version                           : Version 2
File size                                : 683 MiB
Duration                                 : 1h 23mn
Overall bit rate                         : 1 148 Kbps

Video
ID                                       : 1
Format                                   : MPEG-4 Visual
Format profile                           : Advanced Simple@L5
Format settings, BVOP                    : Yes
Format settings, QPel                    : No
Format settings, GMC                     : No warppoints
Format settings, Matrix                  : Default (H.263)
Codec ID                                 : V_MS/VFW/FOURCC / XVID
Codec ID/Hint                            : XviD
Duration                                 : 1h 23mn
Bit rate                                 : 997 Kbps
Width                                    : 680 pixels
Height                                   : 364 pixels
Display aspect ratio                     : 1.85:1
Frame rate mode                          : Constant
Frame rate                               : 23.976 fps
Color space                              : YUV
Chroma subsampling                       : 4:2:0
Bit depth                                : 8 bits
Scan type                                : Progressive
Compression mode                         : Lossy
Bits/(Pixel*Frame)                       : 0.168
Stream size                              : 594 MiB (87%)
Default                                  : Yes
Forced                                   : No

Audio
ID                                       : 2
Format                                   : MPEG Audio
Format version                           : Version 1
Format profile                           : Layer 3
Muxing mode                              : Header stripping
Codec ID                                 : A_MPEG/L3
Codec ID/Hint                            : MP3
Duration                                 : 1h 23mn
Bit rate mode                            : Constant
Bit rate                                 : 128 Kbps
Channel(s)                               : 2 channels
Sampling rate                            : 48.0 KHz
Compression mode                         : Lossy
Stream size                              : 76.2 MiB (11%)
Language                                 : English
Default                                  : Yes
Forced                                   : No



Source:
credit to original movie ripper UnKnOwN (Thanks)

IMDB Info:

Based on the fifteenth best-selling children's book of all time, The Littlest Angel tells the story of a young boy who arrives in heaven before his time... 

Director: Dave Kim
Writers: Sean Catherine Derek (screenplay), Sean Roche (screenplay),
Stars: Ed Kelly, Nina Kircher and Clarity Patton 

Genres: Animation 
http://www.imdb.com/title/tt1869724/

Screen Shot:

 
http://www.shotpix.com/images/43281946971418524593.png 
http://www.shotpix.com/images/75561676126977892866.png 
http://www.shotpix.com/images/96691182953333556312.png 
http://www.shotpix.com/images/85740628388650191403.png 
http://www.shotpix.com/images/23722759113646158929.png 
http://www.shotpix.com/images/30906280467508737779.png